# xmcd CD database file
#
# Track frame offsets:
#	150
#	13655
#	27620
#	42717
#	57325
#	72802
#	87377
#	102580
#	113872
#	129510
#	142680
#	161852
#	174062
#	188295
#	200717
#	215387
#	230525
#	244677
#
# Disc length: 3426 seconds
#
# Revision: 4
# Processed by: cddbd v1.5.2PL0 Copyright (c) Steve Scherf et al.
# Submitted via: CDex 1.70beta2
#
DISCID=fc0d6012
DTITLE=Frank Sinatra - The Essential Frank Sinatra - The Columbia Years [CD1)
DYEAR=1997
DGENRE=Vocal
TTITLE0=All Or Nothing At All
TTITLE1=If You Are But A Dream
TTITLE2=Night And Day
TTITLE3=Sweet Lorraine
TTITLE4=Guess I'll Hang My Tears Out To Dry
TTITLE5=Nancy (With The Laughing Face)
TTITLE6=The House I Live In
TTITLE7=Blue Skies
TTITLE8=There's No You
TTITLE9=When Your Lover Has Gone
TTITLE10=Stormy Weather
TTITLE11=The Nearness Of You
TTITLE12=These Foolish Things (Remind Me Of You)
TTITLE13=Saturday Night (Is The Loneliest Night Of The Week)
TTITLE14=Where Or When
TTITLE15=Someone To Watch Over Me
TTITLE16=Put Your Dreams Away (For Another Day)
TTITLE17=All Of Me
EXTD=
EXTT0=
EXTT1=
EXTT2=
EXTT3=
EXTT4=
EXTT5=
EXTT6=
EXTT7=
EXTT8=
EXTT9=
EXTT10=
EXTT11=
EXTT12=
EXTT13=
EXTT14=
EXTT15=
EXTT16=
EXTT17=
PLAYORDER=
